<?xml version="1.0" standalone="no"?>
<!DOCTYPE svg PUBLIC "-//W3C//DTD SVG 20010904//EN"
 "http://www.w3.org/TR/2001/REC-SVG-20010904/DTD/svg10.dtd">
<svg version="1.0" xmlns="http://www.w3.org/2000/svg"
 width="387.000000pt" height="446.000000pt" viewBox="0 0 387.000000 446.000000"
 preserveAspectRatio="xMidYMid meet">

<g transform="translate(0.000000,446.000000) scale(0.100000,-0.100000)"
fill="#000000" stroke="none">
<path d="M1800 3371 c-5 -11 -10 -26 -10 -34 0 -15 -64 -38 -182 -67 -56 -14
-62 -21 -78 -78 -6 -24 -14 -50 -17 -58 -3 -9 1 -14 12 -14 9 0 14 4 10 9 -3
5 -1 12 5 16 6 3 13 -1 16 -9 3 -9 10 -16 16 -16 5 0 6 5 3 10 -3 6 1 13 9 16
9 3 16 12 16 19 0 20 32 11 41 -11 11 -27 10 -36 -1 -29 -6 4 -9 -13 -9 -43 1
-28 -2 -56 -6 -63 -5 -8 -4 -11 1 -6 13 12 34 88 22 81 -6 -4 -3 4 6 18 9 13
20 49 26 78 12 61 22 75 65 84 26 5 27 5 10 -5 -30 -18 -31 -19 -16 -28 10 -7
9 -10 -8 -16 -11 -3 -21 -10 -21 -15 0 -5 8 -7 18 -3 16 6 16 5 -1 -14 -14
-16 -15 -22 -5 -26 8 -3 5 -6 -7 -7 -20 -1 -20 -1 -1 -15 16 -12 17 -15 4 -20
-9 -4 -14 -17 -13 -35 1 -17 -2 -30 -6 -30 -5 0 -7 -16 -5 -35 1 -19 -1 -35
-4 -35 -4 0 -6 -18 -5 -40 1 -22 -2 -43 -6 -46 -5 -3 -7 -10 -3 -15 3 -5 9 -7
14 -4 7 5 -6 -70 -15 -86 -3 -5 68 -18 75 -14 1 0 34 133 74 295 50 202 69
297 62 302 -23 16 -75 8 -86 -11z m-234 -193 c-9 -12 -16 -20 -17 -18 0 3 -2
13 -4 22 -2 11 2 15 12 11 12 -5 14 -1 9 18 -6 20 -5 21 4 6 8 -13 7 -22 -4
-39z m97 -13 c-3 -9 -8 -14 -10 -11 -3 3 -2 9 2 15 9 16 15 13 8 -4z"/>
<path d="M1955 3280 c-9 -14 -15 -11 87 -43 96 -31 115 -45 99 -76 -16 -29
-15 -30 34 -42 29 -7 52 -21 64 -38 l20 -27 -67 23 c-37 12 -67 23 -67 24 0 0
-8 2 -17 4 -10 2 -18 0 -18 -4 0 -3 27 -15 61 -25 58 -17 99 -44 99 -66 0 -5
-4 -10 -9 -10 -6 0 -13 5 -16 10 -3 6 -21 10 -38 10 -18 0 -52 9 -76 20 -24
11 -49 20 -57 20 -22 0 -27 21 -8 34 16 12 14 14 -24 21 -23 4 -43 6 -44 5 -2
-1 -15 3 -30 9 -25 10 -28 8 -36 -22 -28 -100 -65 -268 -60 -272 8 -8 420
-125 440 -125 16 0 30 38 25 70 -3 20 35 180 43 180 4 0 5 15 3 33 -3 22 -1
28 5 19 7 -10 11 -3 16 25 3 21 8 47 12 58 4 17 -3 23 -38 37 -24 9 -86 34
-139 56 -53 22 -127 50 -165 62 -38 12 -74 27 -81 32 -7 6 -14 5 -18 -2z m52
-282 c-2 -13 -4 -3 -4 22 0 25 2 35 4 23 2 -13 2 -33 0 -45z m112 11 c82 -26
84 -27 77 -59 -7 -38 5 -38 38 1 42 49 30 16 -14 -39 -22 -27 -40 -55 -40 -61
0 -5 -10 -15 -22 -22 -18 -10 -20 -9 -14 6 8 22 -2 39 -17 26 -9 -7 -12 2 -11
32 l2 42 -39 -44 c-37 -41 -41 -43 -56 -28 -15 14 -15 21 2 79 9 35 19 66 22
71 6 10 31 9 72 -4z"/>
<path d="M1881 3264 c0 -11 3 -14 6 -6 3 7 2 16 -1 19 -3 4 -6 -2 -5 -13z"/>
<path d="M1593 3117 c0 -7 -3 -23 -7 -36 -5 -15 -4 -21 2 -17 12 7 22 55 12
61 -4 2 -7 -1 -7 -8z"/>
<path d="M1518 3103 c-16 -4 -24 -29 -19 -57 1 -4 -4 -16 -11 -25 -12 -14 -11
-14 4 -3 9 8 22 11 28 7 7 -4 7 2 0 20 -14 37 -12 42 5 19 15 -18 15 -18 9 9
-6 27 9 39 19 15 3 -8 6 -6 6 5 1 17 -8 19 -41 10z"/>
<path d="M1545 2750 c-6 -10 21 -24 69 -36 13 -3 27 -1 30 5 4 7 1 8 -8 5 -9
-3 -16 -1 -16 5 0 6 -3 10 -7 10 -27 -4 -63 3 -58 11 3 6 4 10 1 10 -3 0 -8
-5 -11 -10z"/>
<path d="M1655 2710 c-3 -5 -1 -10 4 -10 6 0 11 5 11 10 0 6 -2 10 -4 10 -3 0
-8 -4 -11 -10z"/>
<path d="M1800 2656 c0 -3 15 -15 33 -26 l32 -20 -30 0 c-52 0 -146 -29 -225
-68 -97 -48 -97 -48 -81 -29 18 22 0 23 -58 2 -45 -16 -94 -11 -112 11 -12 15
-39 19 -39 6 0 -4 7 -18 17 -31 13 -19 14 -28 5 -42 -28 -44 -10 -43 103 3 52
21 61 23 62 9 6 -97 25 -171 43 -171 12 0 12 2 0 34 -7 20 -6 27 6 34 14 8 14
10 0 21 -30 25 -20 43 22 35 20 -4 46 -11 56 -16 18 -10 18 -8 -2 25 -28 44
-28 49 3 41 28 -7 35 10 9 20 -15 6 -14 10 7 33 32 34 78 53 131 53 24 0 55 6
70 14 30 16 77 14 87 -2 18 -29 111 -48 111 -23 0 15 -25 31 -49 31 -13 0 -52
11 -85 24 -71 28 -116 41 -116 32z"/>
<path d="M2059 2555 c-1 -3 -2 -11 -3 -17 0 -7 -8 -13 -16 -14 -8 0 -32 -4
-52 -8 -32 -7 -38 -12 -38 -33 0 -14 3 -23 8 -21 78 40 104 49 117 38 21 -17
13 -24 -44 -40 -28 -7 -48 -17 -46 -21 3 -4 25 -19 50 -34 40 -23 52 -26 100
-20 30 4 55 11 55 16 0 25 -126 173 -131 154z"/>
<path d="M1268 2510 c23 -11 42 -23 42 -29 0 -5 7 -11 15 -15 23 -8 18 12 -10
39 -16 17 -35 25 -57 24 l-33 0 43 -19z"/>
<path d="M1146 2452 c-2 -4 4 -8 14 -8 10 0 16 4 14 8 -3 4 -9 8 -14 8 -5 0
-11 -4 -14 -8z"/>
<path d="M1156 2389 c11 -13 38 -55 59 -94 20 -38 54 -86 74 -106 37 -37 61
-65 61 -72 0 -3 -13 -7 -30 -10 -33 -7 -41 -27 -11 -27 31 0 51 11 51 28 0 27
12 4 20 -37 4 -22 3 -38 -1 -35 -5 3 -9 -6 -9 -19 0 -18 -6 -26 -25 -29 -16
-4 -25 -1 -25 8 0 7 -4 15 -9 18 -4 3 -4 -18 1 -47 12 -68 18 -82 15 -32 -2
36 0 40 24 43 21 2 26 -1 25 -20 -1 -14 -9 -26 -21 -30 -14 -4 -9 -6 17 -7 30
-1 36 -5 35 -20 -2 -25 -67 -48 -67 -23 0 8 -2 13 -5 10 -10 -10 18 -150 31
-155 23 -9 923 171 938 188 8 8 -1 10 -35 5 -38 -6 -48 -4 -53 9 -3 9 -6 18
-6 20 0 1 16 6 35 9 19 4 35 10 35 15 0 7 -102 -10 -135 -23 -12 -4 -25 13
-25 33 0 4 32 13 70 20 39 7 70 16 70 21 0 4 -27 2 -59 -5 -51 -10 -61 -10
-65 2 -11 27 -6 31 49 38 30 3 55 10 55 14 0 5 -18 5 -39 1 -33 -6 -40 -4 -44
11 -6 23 0 29 29 29 13 0 26 5 30 11 6 11 -26 7 -79 -8 -13 -3 -20 2 -24 16
-3 12 -9 21 -15 21 -5 0 -4 -8 2 -19 8 -16 6 -21 -11 -26 -11 -4 -22 -5 -23
-3 -2 1 -9 12 -15 23 -12 18 -12 19 -6 1 6 -19 -9 -36 -32 -36 -7 0 -13 6 -13
14 0 8 -5 18 -11 22 -8 4 -9 0 -4 -15 3 -12 2 -21 -4 -21 -5 0 -16 -3 -25 -6
-10 -4 -16 -1 -16 9 0 9 -4 18 -9 21 -5 4 -7 -2 -4 -13 3 -11 -2 -21 -12 -25
-21 -8 -35 0 -35 20 0 8 -4 14 -8 14 -5 0 -8 -10 -8 -22 1 -32 -33 -37 -42 -6
l-6 23 -6 -25 c-8 -32 -39 -39 -47 -11 -7 28 -20 27 -19 -1 1 -30 -33 -37 -41
-9 -7 28 -20 27 -19 -1 1 -17 -5 -24 -21 -26 -18 -3 -23 2 -23 17 0 12 -4 21
-8 21 -5 0 -8 -10 -8 -22 1 -17 -5 -24 -21 -26 -15 -2 -23 2 -23 12 0 8 -5 18
-12 22 -7 5 -9 0 -6 -14 4 -15 2 -19 -9 -15 -8 3 -19 0 -23 -8 -7 -10 -11 -8
-18 11 -15 39 2 60 47 60 22 0 44 6 51 15 10 12 7 14 -17 13 -15 -1 -45 2 -65
6 -34 7 -36 6 -31 -13 4 -15 1 -20 -8 -17 -8 2 -27 7 -42 10 -15 4 -25 10 -22
15 2 5 -2 12 -11 15 -24 9 -13 49 16 57 20 6 21 7 5 8 -11 0 -34 -8 -51 -18
l-32 -19 -18 34 c-10 19 -26 34 -36 34 -10 0 -18 4 -18 10 0 5 6 7 14 4 34
-13 20 16 -37 78 -40 44 -73 70 -92 74 l-30 7 21 -24z m988 -295 c8 -20 7 -21
-19 -26 -14 -2 -21 3 -23 20 -3 16 2 22 16 22 11 0 23 -7 26 -16z m-56 -15 c4
-21 -35 -32 -42 -12 -4 8 -3 19 0 24 9 15 38 6 42 -12z m-55 -8 c3 -14 -2 -20
-19 -24 -23 -4 -40 15 -28 34 10 16 42 9 47 -10z m-59 -7 c8 -20 8 -20 -20
-28 -16 -5 -23 -2 -27 13 -3 11 -2 22 1 25 11 12 40 5 46 -10z m-60 -11 c7
-16 -8 -33 -30 -33 -13 0 -25 35 -16 44 11 12 40 5 46 -11z m-60 -10 c7 -16
-8 -33 -30 -33 -13 0 -25 35 -16 44 11 12 40 5 46 -11z m-60 -9 c8 -21 -1 -34
-24 -34 -19 0 -34 25 -24 41 9 15 41 10 48 -7z m329 -3 c3 -14 -2 -20 -19 -24
-23 -4 -40 15 -28 34 10 16 42 9 47 -10z m-390 -12 c8 -30 -35 -45 -46 -16 -5
13 -3 23 5 29 22 13 35 9 41 -13z m331 5 c8 -20 8 -20 -20 -28 -16 -5 -23 -2
-27 13 -3 11 -2 22 1 25 11 12 40 5 46 -10z m-391 -13 c6 -25 0 -31 -30 -31
-16 0 -23 6 -23 19 0 32 45 42 53 12z m331 3 c8 -20 8 -20 -20 -28 -16 -5 -23
-2 -27 13 -8 30 36 44 47 15z m-396 -21 c2 -15 -4 -22 -22 -25 -19 -4 -25 0
-29 18 -3 15 1 25 12 27 26 7 36 2 39 -20z m336 11 c8 -21 -1 -34 -23 -34 -21
0 -35 36 -17 44 22 9 34 6 40 -10z m-60 -10 c3 -9 4 -20 0 -25 -5 -9 -44 -13
-44 -5 0 2 -3 11 -6 19 -5 14 5 20 37 26 4 0 10 -6 13 -15z m-334 -20 c0 -8
-9 -14 -20 -14 -11 0 -23 0 -27 -1 -5 0 -10 8 -12 18 -3 14 -1 15 12 5 12 -10
16 -10 21 3 7 19 26 11 26 -11z m274 10 c3 -9 4 -19 1 -24 -7 -11 -45 -20 -45
-10 0 5 -3 15 -6 23 -5 14 5 20 37 26 4 0 10 -6 13 -15z m-414 -19 c0 -14 -4
-25 -10 -25 -11 0 -14 33 -3 43 11 11 13 8 13 -18z m50 -7 c0 -5 -4 -8 -10 -8
-5 0 -10 10 -10 23 0 18 2 19 10 7 5 -8 10 -18 10 -22z m309 -9 c2 -14 -48
-16 -53 -2 -10 25 -7 32 17 35 19 3 34 -11 36 -33z m341 37 c0 -2 3 -11 6 -19
3 -10 -3 -16 -20 -19 -16 -3 -27 0 -30 9 -10 26 -6 33 19 33 14 0 25 -2 25 -4z
m-60 -10 c0 -2 3 -11 6 -19 3 -10 -3 -16 -20 -19 -25 -5 -42 14 -30 33 5 9 44
13 44 5z m-347 -25 c3 -14 -2 -20 -19 -24 -28 -5 -34 0 -34 25 0 25 46 25 53
-1z m287 15 c0 -2 3 -11 6 -19 3 -10 -3 -16 -20 -19 -25 -5 -42 14 -30 33 5 9
44 13 44 5z m-350 -25 c0 -26 -47 -35 -53 -10 -6 23 0 29 30 29 16 0 23 -6 23
-19z m294 3 c8 -20 8 -20 -20 -28 -25 -8 -43 22 -22 36 20 12 35 9 42 -8z
m-360 -11 c4 -9 1 -20 -6 -25 -21 -13 -43 -4 -46 20 -3 18 1 22 21 22 14 0 28
-7 31 -17z m299 -3 c5 -20 -23 -37 -43 -25 -14 9 -13 32 3 38 24 10 35 7 40
-13z m335 -1 c4 -22 -55 -32 -63 -11 -3 7 -2 18 1 23 9 16 58 6 62 -12z m-723
-75 c6 -20 2 -23 -47 -29 -29 -4 -60 -11 -68 -17 -10 -6 1 -7 33 -3 47 6 48 5
45 -17 -2 -17 -10 -24 -33 -26 -16 -2 -36 -8 -42 -14 -10 -8 -13 -6 -13 4 0 9
-3 36 -6 60 l-6 45 57 8 c56 7 57 7 52 35 -4 15 -3 31 1 35 4 4 10 -8 14 -27
3 -18 9 -43 13 -54z m25 64 c0 -19 -2 -20 -10 -8 -13 19 -13 30 0 30 6 0 10
-10 10 -22z m304 -19 c-3 -5 -16 -9 -30 -9 -29 0 -35 36 -6 43 18 4 45 -21 36
-34z m320 25 c4 -9 5 -18 4 -19 -10 -9 -78 -22 -78 -15 0 5 -3 15 -6 23 -4 11
2 17 18 20 45 8 56 7 62 -9z m-691 -14 c3 -11 1 -20 -4 -20 -5 0 -9 9 -9 20 0
11 2 20 4 20 2 0 6 -9 9 -20z m307 -9 c0 -27 -47 -34 -53 -9 -4 13 1 22 16 27
27 11 37 5 37 -18z m294 3 c4 -9 5 -18 4 -19 -2 -1 -82 -17 -178 -35 -96 -18
-185 -36 -196 -41 -18 -6 -23 -3 -28 14 -3 11 -4 23 -2 25 2 2 62 14 133 27
70 13 146 28 168 34 63 14 92 13 99 -5z m-360 -10 c8 -20 7 -21 -24 -26 -20
-2 -26 2 -28 20 -3 18 1 22 21 22 14 0 28 -7 31 -16z m-64 -13 c0 -17 -18 -31
-40 -31 -10 0 -20 37 -12 44 3 3 16 6 29 6 16 0 23 -6 23 -19z m-66 -8 c10
-26 -35 -46 -49 -23 -11 17 3 40 24 40 10 0 22 -8 25 -17z m86 -59 c0 -6 -20
-15 -44 -21 -40 -9 -45 -8 -49 9 -6 21 4 29 47 38 30 6 46 -2 46 -26z m-105
-5 c9 -26 6 -28 -36 -31 -28 -3 -34 0 -34 17 0 12 9 22 25 26 38 11 38 10 45
-12z"/>
<path d="M1592 2384 c4 -6 25 -23 47 -38 32 -23 45 -26 76 -20 47 8 33 23 -26
28 -25 1 -58 12 -74 22 -16 10 -26 14 -23 8z"/>
<path d="M1959 2373 c-13 -15 -11 -16 20 -10 18 4 41 7 50 8 9 1 5 4 -9 9 -38
12 -46 11 -61 -7z"/>
<path d="M1890 2366 l-35 -10 29 -4 c16 -2 33 1 39 7 16 16 5 19 -33 7z"/>
<path d="M1590 2345 c33 -19 50 -18 26 0 -11 8 -27 15 -35 15 -10 -1 -7 -6 9
-15z"/>
<path d="M2304 2283 c6 -32 -24 -39 -47 -11 -17 21 -18 21 -8 2 9 -19 7 -22
-14 -26 -13 -3 -26 -1 -29 4 -2 5 -3 3 -2 -4 5 -20 166 -8 166 13 0 5 -11 7
-25 3 -20 -5 -27 -1 -35 17 -10 22 -10 22 -6 2z"/>
<path d="M2537 2288 c2 -5 15 -8 29 -8 13 0 24 3 24 8 0 4 -13 7 -29 7 -16 0
-27 -3 -24 -7z"/>
<path d="M2116 2253 c8 -29 -26 -36 -44 -8 -13 20 -13 20 -7 -1 4 -16 0 -23
-16 -27 -15 -4 -23 0 -26 14 -3 10 -9 19 -13 19 -5 0 -6 -9 -3 -20 5 -19 -9
-26 -39 -21 -5 0 -8 -3 -8 -9 0 -13 14 -13 130 7 55 9 100 20 100 25 0 5 -10
6 -22 3 -16 -6 -26 -1 -39 16 -17 23 -18 23 -13 2z"/>
<path d="M1867 2210 c3 -11 1 -20 -5 -20 -6 0 -17 -3 -26 -6 -12 -4 -16 0 -16
15 0 12 -4 21 -9 21 -5 0 -7 -8 -4 -19 7 -29 -36 -36 -47 -8 l-9 22 0 -21 c-1
-15 -10 -24 -28 -29 -62 -17 5 -16 108 0 78 13 109 22 109 32 0 10 -4 11 -19
3 -27 -14 -41 -13 -41 4 0 8 -4 17 -9 20 -5 4 -7 -3 -4 -14z"/>
<path d="M2520 2213 c9 -20 8 -23 -11 -23 -12 0 -28 8 -35 18 -12 16 -13 15
-8 -4 8 -31 -34 -41 -46 -11 -5 12 -9 17 -9 11 -1 -6 9 -34 20 -63 20 -46 23
-49 35 -34 11 16 16 16 34 5 12 -8 19 -9 15 -3 -10 17 23 25 42 10 11 -9 14
-10 10 -2 -5 8 2 14 20 18 15 4 37 11 48 16 19 9 18 9 -3 5 -15 -3 -26 2 -32
15 -8 15 -7 19 4 19 8 0 18 5 22 12 5 8 0 9 -14 6 -14 -4 -26 0 -33 10 -10 16
-10 16 -5 0 8 -26 -30 -30 -49 -4 l-16 21 11 -22z m69 -41 c9 -17 3 -20 -62
-32 -85 -15 -81 -15 -85 5 -5 24 29 31 46 9 11 -15 13 -15 9 -2 -8 24 24 33
42 11 12 -15 13 -16 8 -1 -5 15 4 25 25 27 4 1 12 -7 17 -17z"/>
<path d="M1691 2184 c0 -11 3 -14 6 -6 3 7 2 16 -1 19 -3 4 -6 -2 -5 -13z"/>
<path d="M2339 2181 c16 -29 -23 -35 -44 -7 l-16 21 10 -21 c9 -19 7 -22 -15
-27 -19 -3 -28 1 -35 17 -8 17 -8 15 -3 -9 11 -60 27 -80 59 -77 61 6 135 24
130 32 -3 4 -14 6 -24 3 -13 -3 -23 2 -30 16 -10 17 -9 21 3 21 8 0 18 5 22
12 5 8 0 9 -16 5 -16 -4 -23 -1 -27 14 -3 10 -9 19 -15 19 -5 0 -4 -8 1 -19z
m18 -73 c-20 -13 -34 -9 -40 11 -6 25 23 34 40 12 10 -12 10 -16 0 -23z m-52
6 c0 -12 -8 -20 -22 -22 -17 -3 -23 2 -23 16 0 20 16 33 35 28 6 -2 10 -11 10
-22z"/>
<path d="M1601 2173 c0 -13 -7 -23 -13 -24 -7 0 -1 -4 13 -9 38 -11 82 -1 75
17 -3 8 -6 20 -7 26 0 7 -4 2 -9 -10 -5 -13 -18 -23 -29 -23 -12 0 -21 8 -24
23 l-4 22 -2 -22z"/>
<path d="M1537 2160 c3 -11 7 -20 9 -20 2 0 4 9 4 20 0 11 -4 20 -9 20 -5 0
-7 -9 -4 -20z"/>
<path d="M2615 2119 c5 -13 -8 -18 -67 -29 -40 -8 -76 -13 -80 -12 -12 3 -10
-3 19 -63 16 -32 34 -55 43 -55 8 0 44 7 80 14 36 8 67 12 69 10 2 -2 0 -16
-5 -31 -7 -26 -8 -26 -11 -5 -6 29 -21 28 -35 -3 -6 -14 -14 -21 -18 -16 -3 6
-22 8 -44 4 l-38 -6 39 -14 c21 -7 49 -10 63 -6 14 3 27 7 30 7 3 1 11 5 18 9
6 5 17 5 22 2 6 -4 16 -2 23 3 7 5 24 12 38 15 29 7 34 29 8 45 -14 9 -16 8
-12 -7 6 -24 -14 -36 -32 -21 -12 10 -15 9 -15 -4 0 -32 -18 -15 -24 23 -3 22
-10 43 -16 46 -6 3 -7 -1 -4 -9 8 -20 -26 -22 -45 -3 -10 10 -11 9 -6 -3 4
-12 -6 -18 -45 -26 -45 -10 -52 -9 -61 7 -11 22 -9 24 74 39 67 12 87 23 67
35 -5 3 -10 1 -10 -6 0 -7 -10 -9 -25 -7 -14 3 -25 1 -25 -3 0 -13 -34 -11
-49 4 -10 10 -11 9 -6 -4 4 -11 -1 -18 -17 -22 -22 -6 -41 9 -35 28 4 11 76
28 94 21 7 -3 13 0 13 5 0 7 11 9 25 7 14 -3 25 -2 25 3 0 4 7 10 15 12 11 3
10 4 -2 3 -10 -1 -24 5 -31 14 -11 13 -11 13 -7 -1z"/>
<path d="M2755 2020 c3 -5 10 -10 16 -10 5 0 9 5 9 10 0 6 -7 10 -16 10 -8 0
-12 -4 -9 -10z"/>
<path d="M2701 2003 c7 -12 15 -20 18 -17 3 2 -3 12 -13 22 -17 16 -18 16 -5
-5z"/>
<path d="M2372 1998 c-8 -8 -8 -17 -1 -30 8 -15 6 -20 -13 -27 -19 -7 -25 -5
-35 18 -7 14 -12 19 -13 10 0 -8 6 -23 13 -33 13 -18 17 -18 95 -1 45 10 79
22 76 26 -3 5 -16 6 -30 3 -15 -4 -24 -2 -24 6 0 7 -6 6 -16 -4 -21 -21 -31
-20 -44 4 -11 20 -4 24 37 23 7 -1 10 3 7 8 -7 13 -38 11 -52 -3z"/>
<path d="M2185 1855 c-165 -35 -431 -89 -592 -121 -161 -31 -290 -60 -288 -64
2 -4 57 4 122 16 65 13 124 24 131 24 23 0 7 -53 -33 -113 -21 -31 -52 -93
-70 -139 -18 -45 -37 -84 -42 -85 -6 -2 -39 35 -74 82 -35 47 -84 101 -108
120 -24 19 -39 35 -33 35 19 0 14 22 -13 63 -18 26 -33 37 -51 37 -27 0 -63
-16 -79 -35 -5 -7 -42 -22 -80 -33 -73 -22 -150 -73 -180 -119 -13 -20 -14
-27 -3 -40 10 -12 24 -14 73 -8 79 10 119 13 183 14 47 1 52 3 53 24 1 19 2
19 6 3 3 -11 14 -27 24 -35 11 -9 34 -51 52 -93 33 -80 86 -162 148 -231 31
-34 42 -40 88 -45 52 -5 52 -4 99 45 26 27 82 108 125 180 83 141 145 218 205
255 34 21 50 23 182 25 80 1 172 4 205 8 33 3 96 8 139 10 90 4 74 13 226
-125 41 -38 102 -88 135 -112 78 -55 165 -126 189 -152 10 -12 23 -20 28 -18
6 2 8 -4 5 -12 -9 -24 60 -76 102 -76 27 0 51 48 55 105 2 33 11 55 36 86 39
49 59 99 60 152 0 31 -3 37 -21 37 -21 0 -75 -52 -84 -82 -3 -9 -28 -31 -55
-48 -48 -31 -50 -34 -51 -79 l-1 -46 -9 45 c-5 25 -16 50 -25 55 -9 6 -27 18
-40 28 l-23 18 20 34 c24 39 20 51 -19 60 -32 7 -233 191 -267 245 -27 43 -42
49 -203 86 -67 16 -116 31 -110 35 7 3 55 14 106 24 50 10 92 19 92 21 0 8
-46 0 -335 -61z"/>
</g>
</svg>
